<?xml version="1.0" encoding="UTF-8"?>
<svg id="Layer_1" xmlns="http://www.w3.org/2000/svg" version="1.1" viewBox="0 0 672 672">
  <!-- Generator: Adobe Illustrator 29.8.2, SVG Export Plug-In . SVG Version: 2.1.1 Build 3)  -->
  <defs>
    <style>
      .st0 {
        fill: #fff;
      }

      .st1 {
        fill: #b70100;
      }
    </style>
  </defs>
  <rect class="st1" width="672" height="672"/>
  <g>
    <path class="st0" d="M342,116.5c148.5,156-107.2,256-64.2,404.9,7,24.1,21.4,45.1,38,63.5l-2.9.9c-76.2-52.5-136.9-101.8-95.1-202.4,25-59.9,108-158.7,109.7-218.2.8-27.1-8.4-55.8-21.6-79.1,1.4-1.4,10.8,6.3,12.6,7.8,8.3,6.8,15.9,14.8,23.3,22.6Z"/>
    <path class="st0" d="M325.5,557.5c0,.8,6.6,8-.9,2.8-81.9-109.5,70.5-195.4,77-302.5l14.6,29.3c24.8,77.3-41.4,131.5-73.5,192-4,7.6-17.2,36.4-17.2,43.3,0,11.6-.5,23.5,0,35.1Z"/>
    <path class="st0" d="M362.6,585.8c-5,.8-3-.5-4.1-2.8-33.1-71,89.8-158.6,82.2-240.3-.5-5.9-4.9-11.1-3-16.6,11.6,14.3,23.1,32.7,27.4,50.7,20.5,85.8-85.5,133.8-102.6,208.9Z"/>
  </g>
</svg>
