<?xml version="1.0" encoding="UTF-8"?>
<svg id="Layer_1" xmlns="http://www.w3.org/2000/svg" version="1.1" viewBox="0 0 227.4 59">
  <!-- Generator: Adobe Illustrator 29.8.2, SVG Export Plug-In . SVG Version: 2.1.1 Build 3)  -->
  <defs>
    <style>
      .st0 {
        fill: #b70100;
      }
    </style>
  </defs>
  <path class="st0" d="M50.9,0v49.1h16.1v-23.2h9.8s.4,6.2.4,6.2c10-13.2,32.1-12,36.8,5.2.8,2.9.3,11.8,4.3,11.8h93.1v-23.2h9.8v33.1h-102c-.9,0-5.4-3.3-6.3-4.4-1.1,1.5-5.6,4.4-7.1,4.4H41.1V0h9.8ZM104.5,49.1c4.6-24.7-25.2-20-27.7,0h27.7Z"/>
  <path class="st0" d="M0,59v-9.8h22.3c1.5-15.6-2.7-18.4-17.9-17v-8.9h16.5c.8,0,4.9,2.3,5.9,3.1,7.7,6.8,2.9,21.7,5,30.9l-1.1,1.8H0Z"/>
  <path class="st0" d="M208.6,8.2c7.2-1.1,8.3,12.2-.9,9.5s-3.9-8.8.9-9.5Z"/>
  <path class="st0" d="M222,8.2c6-.9,7.8,8.8,1.5,9.7-7.6,1.1-7.6-8.8-1.5-9.7Z"/>
  <path class="st0" d="M95.3,8.2c6-.9,7.8,8.8,1.5,9.7s-7.6-8.8-1.5-9.7Z"/>
</svg>
